<?xml version="1.0" encoding="UTF-8"?>
<!-- Generator: visioncortex VTracer -->
<svg id="svg" version="1.1" xmlns="http://www.w3.org/2000/svg" style="display: block;" viewBox="0 0 370 370"><path d="M0 0 C122.1 0 244.2 0 370 0 C370 122.1 370 244.2 370 370 C247.9 370 125.8 370 0 370 C0 247.9 0 125.8 0 0 Z " transform="translate(0,0)" style="fill: #2C2D2E;"/><path d="M0 0 C0 210 0 210 -2 212 C-3.44392944 212.09665268 -4.89257739 212.12371812 -6.33973789 212.12304783 C-7.28224575 212.12503888 -8.2247536 212.12702993 -9.1958223 212.12908131 C-10.2434655 212.12616847 -11.2911087 212.12325563 -12.37049866 212.12025452 C-13.47391222 212.12110894 -14.57732578 212.12196337 -15.71417612 212.12284368 C-19.44236071 212.12450172 -23.17050113 212.11897183 -26.89868164 212.11352539 C-29.55889488 212.11324356 -32.21910534 212.11335705 -34.87931824 212.1139679 C-40.62242662 212.11449332 -46.36552369 212.11134458 -52.10862923 212.10573006 C-60.41228815 212.09761757 -68.71594157 212.0950001 -77.01960402 212.09374207 C-90.49036738 212.09155115 -103.96112469 212.08488999 -117.43188477 212.07543945 C-130.52075164 212.06626636 -143.60961689 212.05918502 -156.69848633 212.05493164 C-157.50471241 212.05466892 -158.31093849 212.05440619 -159.14159567 212.05413551 C-163.18602426 212.05283051 -167.23045287 212.05156679 -171.27488148 212.05032361 C-204.84992537 212.03994976 -238.42496195 212.02233037 -272 212 C-271.38790428 211.2883242 -271.38790428 211.2883242 -270.76344299 210.56227112 C-270.22606003 209.93658737 -269.68867706 209.31090363 -269.13500977 208.66625977 C-268.33728905 207.73802147 -268.33728905 207.73802147 -267.52345276 206.79103088 C-265.61241615 204.54434121 -263.7684963 202.24974378 -261.9375 199.9375 C-254.14645522 190.14645522 -254.14645522 190.14645522 -252 188 C-253.0725 188.309375 -254.145 188.61875 -255.25 188.9375 C-257.82200559 189.66623492 -260.40656624 190.35164156 -263 191 C-263 132.92 -263 74.84 -263 15 C-245.35789062 15.03222656 -227.71578125 15.06445312 -209.5390625 15.09765625 C-198.37366612 15.09803748 -187.20834683 15.09614972 -176.04296875 15.08398438 C-170.17757214 15.07768174 -164.31217539 15.07194063 -158.44677734 15.06713867 C-157.71167683 15.06651348 -156.97657631 15.06588828 -156.21920002 15.06524414 C-144.36182707 15.05597777 -132.50471583 15.0783932 -120.64739759 15.11256976 C-108.4724847 15.14695434 -96.29791475 15.14715537 -84.12299192 15.11582941 C-76.61419362 15.09758057 -69.10639116 15.10578182 -61.59768622 15.14815276 C-55.83341318 15.17781898 -50.07003581 15.15985216 -44.30583191 15.12437057 C-41.94601835 15.11723883 -39.58610004 15.12541744 -37.2264061 15.15022469 C-22.84639913 15.79264336 -22.84639913 15.79264336 -10.64266968 9.43040466 C-9.41537376 7.96444914 -8.19684582 6.4909195 -7 5 C-6.34 5 -5.68 5 -5 5 C-5 4.34 -5 3.68 -5 3 C-1.42307692 0 -1.42307692 0 0 0 Z " transform="translate(325,141)" style="fill: #313A44;"/><path d="M0 0 C1.1511152 3.45334561 0.95996501 5.93167221 0.8125 9.5625 C0.757039 20.34411841 4.87687166 27.44384053 11 36 C16.96798718 44.41089755 22.74492144 52.79860997 27.01171875 62.23828125 C28.4536923 64.80875583 30.26531437 65.08843812 33 66 C34.34050052 66.65213539 35.67661368 67.31379969 37 68 C37 68.66 37 69.32 37 70 C37.57492188 70.26683594 38.14984375 70.53367187 38.7421875 70.80859375 C51.82308917 77.71114567 65.97444109 90.98557418 70.7578125 105.26171875 C72.69875413 113.0938283 73.17400156 119.89489376 69.16796875 127.078125 C68.78253906 127.71234375 68.39710938 128.3465625 68 129 C67.45988281 129.90234375 66.91976562 130.8046875 66.36328125 131.734375 C65.91339844 132.48203125 65.46351563 133.2296875 65 134 C65.68513672 133.98952637 66.37027344 133.97905273 67.07617188 133.96826172 C70.21740974 133.92637148 73.35858857 133.90056963 76.5 133.875 C78.11648438 133.84986328 78.11648438 133.84986328 79.765625 133.82421875 C85.88824592 133.7868857 91.14105614 134.19396633 97 136 C97 136.66 97 137.32 97 138 C97.721875 138.2475 98.44375 138.495 99.1875 138.75 C102.28975304 140.12877913 104.50122551 141.70945672 107 144 C108.4700271 148.4100813 108.91036877 152.97188116 106.98828125 157.25390625 C106.66214844 157.83011719 106.33601562 158.40632812 106 159 C106.42410156 159.43828125 106.84820312 159.8765625 107.28515625 160.328125 C111.73039029 165.13483961 114.99933188 170.13094331 118.12890625 175.875 C120.46248916 179.77242449 123.27441939 183.36589252 126 187 C36.9 187 -52.2 187 -144 187 C-142.02 184.69 -140.04 182.38 -138 180 C-136.63607642 178.32037621 -135.28070192 176.63374061 -133.9375 174.9375 C-132.62997138 173.2877144 -131.31720764 171.6420681 -130 170 C-129.41395996 168.96544678 -128.82791992 167.93089355 -128.22412109 166.86499023 C-126.27698796 164.55801004 -125.24629646 164.04338709 -122.23188782 163.51237488 C-118.59985491 163.40065688 -115.01749812 163.48369641 -111.38671875 163.6328125 C-110.04871436 163.66646775 -108.71063959 163.69742414 -107.37251282 163.72579956 C-103.86149402 163.80747355 -100.35262957 163.9256479 -96.84295654 164.05157471 C-93.25721443 164.17372246 -89.67064238 164.2611606 -86.08398438 164.3515625 C-79.05479493 164.53383284 -72.02729505 164.75469568 -65 165 C-65 164.01 -65 163.02 -65 162 C-66.04220703 162.10175537 -66.04220703 162.10175537 -67.10546875 162.20556641 C-76.80803562 163.05869135 -86.48681152 163.28614518 -96.22314453 163.35009766 C-98.08882979 163.36682879 -99.95444673 163.39433684 -101.81982422 163.43212891 C-104.54687787 163.48679357 -107.27247331 163.50872901 -110 163.5234375 C-110.83023682 163.54610687 -111.66047363 163.56877625 -112.51586914 163.59213257 C-116.84823109 163.57627235 -118.47935093 163.4165022 -121.98046875 160.61572266 C-124.80042781 156.96327568 -125.77914214 154.27606763 -126.5625 149.75 C-125.75231594 144.34877293 -122.92741269 140.72990258 -119 137 C-114.80673866 134.83414997 -110.91184228 134.73618648 -106.29296875 134.8046875 C-105.56757401 134.8075174 -104.84217926 134.81034729 -104.09480286 134.81326294 C-101.79219632 134.82440201 -99.48998773 134.84949434 -97.1875 134.875 C-95.62044835 134.88503794 -94.05339057 134.89416237 -92.48632812 134.90234375 C-88.65740022 134.9243207 -84.82876744 134.95880661 -81 135 C-81.0414917 133.80802002 -81.0829834 132.61604004 -81.12573242 131.38793945 C-81.56176456 117.59140063 -79.08765753 108.65854144 -70 98 C-67.24560838 95.12385462 -64.37775779 92.37691393 -61.5 89.625 C-52.08730777 80.39085739 -45.81922148 71.80789426 -42 59 C-41.78601563 58.3090625 -41.57203125 57.618125 -41.3515625 56.90625 C-39.29681057 49.16370648 -39.34736121 40.96188466 -39 33 C-35.67294013 36.06482855 -34.12515956 39.70536716 -32.25 43.75 C-29.41747784 49.63136275 -26.65009547 55.32743795 -21 59 C-19.67298036 59.35764196 -18.33986941 59.69399534 -17 60 C-17.0314209 59.12601563 -17.0314209 59.12601563 -17.06347656 58.234375 C-17.7368866 36.54886683 -14.5363726 17.01416338 0 0 Z " transform="translate(197,166)" style="fill: #90483C;"/><path d="M0 0 C92.4 0 184.8 0 280 0 C280 6 280 6 278.625 7.875 C277 9 277 9 275 9 C275 9.66 275 10.32 275 11 C273.23947136 12.58070528 271.41580202 14.09166286 269.5625 15.5625 C268.55316406 16.36816406 267.54382813 17.17382812 266.50390625 18.00390625 C265.67761719 18.66261719 264.85132813 19.32132813 264 20 C263.67 20.33 263.34 20.66 263 21 C259.83973225 21.09807612 256.70130003 21.12990232 253.54063416 21.12025452 C252.0325217 21.12153615 252.0325217 21.12153615 250.49394232 21.12284368 C247.097425 21.12450152 243.70095619 21.11897217 240.30444336 21.11352539 C237.88068137 21.11324356 235.45691929 21.11340117 233.03315735 21.1139679 C227.80079103 21.11419621 222.56843585 21.11134486 217.33607292 21.10573006 C209.7708721 21.09761718 202.2056773 21.09500006 194.6404726 21.09374207 C182.36765215 21.09155121 170.09483833 21.08489022 157.82202148 21.07543945 C145.89721713 21.0662662 133.97241458 21.0591964 122.04760742 21.05493164 C120.9345508 21.05452964 120.9345508 21.05452964 119.79900819 21.05411953 C113.34476367 21.05180681 106.89051911 21.04965395 100.43627453 21.04751682 C72.62417678 21.03810022 44.8120966 21.0181818 17 21 C17 79.08 17 137.16 17 197 C18.65 196.01 20.3 195.02 22 194 C24.68649553 193.38580992 27.24041959 193.23386275 30 193 C29.27425781 193.69351563 28.54851562 194.38703125 27.80078125 195.1015625 C24.9433001 197.95803856 22.57425765 201.12457222 20.1875 204.375 C11.71169344 215.5690137 11.71169344 215.5690137 7 218 C4.69 218 2.38 218 0 218 C0 146.06 0 74.12 0 0 Z " transform="translate(45,135)" style="fill: #20252A;"/><path d="M0 0 C1.1511152 3.45334561 0.95996501 5.93167221 0.8125 9.5625 C0.75700225 20.35126173 4.88411346 27.43508231 11 36 C12.18212623 37.68565313 13.35949717 39.37450635 14.53442383 41.06518555 C15.70023273 42.74096267 16.87339431 44.41161741 18.046875 46.08203125 C22.6159721 52.90826232 23.01297954 58.51800803 23.125 66.6875 C23.46446422 74.81794628 26.26245335 79.42886457 31 86 C36.93876439 95.58013443 39.70505895 103.66791591 38 115 C36.88850089 118.38367872 35.57222124 121.42777876 33 124 C31.33382885 124.04063832 29.66611905 124.042721 28 124 C28 124.66 28 125.32 28 126 C27.28714844 126.03738281 26.57429688 126.07476562 25.83984375 126.11328125 C20.65291347 126.4693155 16.80197871 127.0155938 12.0925293 129.30615234 C1.56008048 132.79853591 -12.12023821 131.0759497 -23.12670898 130.82861328 C-25.13761649 130.78616794 -27.14891837 130.76393061 -29.16015625 130.7421875 C-30.33199463 130.7201123 -31.50383301 130.69803711 -32.71118164 130.67529297 C-36.40908546 131.04038926 -38.74417652 132.27529971 -42 134 C-45.27853088 133.74286032 -47.88591117 133.03802961 -51 132 C-56.8356863 131.6506848 -56.8356863 131.6506848 -62 134 C-64.29633824 137.44450737 -64.54016485 139.93812283 -65 144 C-69.78964168 143.88521556 -73.04890518 143.72849816 -76.9375 140.75 C-82.13375932 133.82165424 -81.66220114 126.28170541 -81 118 C-78.46894715 105.93581994 -70.11326123 97.86160477 -61.5 89.625 C-52.08730777 80.39085739 -45.81922148 71.80789426 -42 59 C-41.78601563 58.3090625 -41.57203125 57.618125 -41.3515625 56.90625 C-39.29681057 49.16370648 -39.34736121 40.96188466 -39 33 C-35.67294013 36.06482855 -34.12515956 39.70536716 -32.25 43.75 C-29.41747784 49.63136275 -26.65009547 55.32743795 -21 59 C-19.67298036 59.35764196 -18.33986941 59.69399534 -17 60 C-17.02094727 59.41734375 -17.04189453 58.8346875 -17.06347656 58.234375 C-17.7368866 36.54886683 -14.5363726 17.01416338 0 0 Z " transform="translate(197,166)" style="fill: #D25B40;"/><path d="M0 0 C2.64529489 0.0802885 4.22998046 0.20816111 6.4296875 1.70703125 C10.32988797 6.03941609 13.05198246 11.3183161 15.84375 16.40234375 C18.19853925 20.30608248 21.01461793 23.91532391 23.75 27.5625 C-65.35 27.5625 -154.45 27.5625 -246.25 27.5625 C-244.27 25.2525 -242.29 22.9425 -240.25 20.5625 C-238.88607642 18.88287621 -237.53070192 17.19624061 -236.1875 15.5 C-234.87997138 13.8502144 -233.56720764 12.2045681 -232.25 10.5625 C-231.65944824 9.52794678 -231.06889648 8.49339355 -230.46044922 7.42749023 C-228.52892568 5.13858842 -227.50903924 4.60878085 -224.52070618 4.07487488 C-220.94835551 3.96320385 -217.42653799 4.04611215 -213.85546875 4.1953125 C-212.55297684 4.22599823 -211.25048492 4.25668396 -209.90852356 4.28829956 C-206.45666793 4.36996576 -203.00700481 4.48813945 -199.55651855 4.61407471 C-196.03110976 4.73623228 -192.50485638 4.82366368 -188.97851562 4.9140625 C-182.06779225 5.09632174 -175.15876456 5.31718336 -168.25 5.5625 C-167.755 7.0475 -167.755 7.0475 -167.25 8.5625 C-165.94712036 8.7622644 -165.94712036 8.7622644 -164.61791992 8.96606445 C-161.46660831 9.52414015 -158.45445064 10.28464693 -155.36328125 11.10546875 C-148.38364444 12.7336873 -141.59413016 12.98768806 -134.46411133 12.89868164 C-132.42164297 12.87481471 -130.38046596 12.87818532 -128.33789062 12.88476562 C-119.55113584 12.83736283 -112.04668243 12.5535169 -104.3125 8 C-103.56097656 7.56558594 -102.80945313 7.13117188 -102.03515625 6.68359375 C-100.29882461 5.68557582 -100.29882461 5.68557582 -99.25 4.5625 C-96.76739701 4.52011032 -94.31636161 4.544182 -91.8359375 4.61328125 C-90.66297874 4.64056305 -90.66297874 4.64056305 -89.46632385 4.668396 C-86.85236868 4.73146777 -84.23872012 4.80287725 -81.625 4.875 C-80.73249542 4.89795135 -79.83999084 4.92090271 -78.92044067 4.94454956 C-56.35255847 5.52576875 -33.80100034 6.53014595 -11.25 7.5625 C-11.25 6.9025 -11.25 6.2425 -11.25 5.5625 C-9.60666496 4.52460419 -7.93756133 3.52682076 -6.25 2.5625 C-3.91457643 0.22707643 -3.20323569 0.16887807 0 0 Z " transform="translate(299.25,325.4375)" style="fill: #675D56;"/><path d="M0 0 C1.1511152 3.45334561 0.95996501 5.93167221 0.8125 9.5625 C0.75700225 20.35126173 4.88411346 27.43508231 11 36 C12.18212623 37.68565313 13.35949717 39.37450635 14.53442383 41.06518555 C15.70023273 42.74096267 16.87339431 44.41161741 18.046875 46.08203125 C22.6159721 52.90826232 23.01297954 58.51800803 23.125 66.6875 C23.46446422 74.81794628 26.26245335 79.42886457 31 86 C36.93876439 95.58013443 39.70505895 103.66791591 38 115 C36.88850089 118.38367872 35.57222124 121.42777876 33 124 C31.33382885 124.04063832 29.66611905 124.042721 28 124 C28 124.66 28 125.32 28 126 C27.28714844 126.03738281 26.57429688 126.07476562 25.83984375 126.11328125 C20.63800786 126.47033863 16.85590704 126.98270531 12.16796875 129.3671875 C6.78978499 130.93703573 0.56753505 130.19346647 -5 130 C-4.37609375 129.23429688 -3.7521875 128.46859375 -3.109375 127.6796875 C3.41972151 119.38531675 2.72317221 110.59904763 1.75390625 100.4140625 C-0.10249745 89.81150941 -7.32788763 79.14097817 -15.2109375 71.99609375 C-17 70 -17 70 -17 66 C-17.66 66 -18.32 66 -19 66 C-19 65.34 -19 64.68 -19 64 C-19.66 63.67 -20.32 63.34 -21 63 C-20.67 62.01 -20.34 61.02 -20 60 C-19.01 60 -18.02 60 -17 60 C-17.0314209 59.12601563 -17.0314209 59.12601563 -17.06347656 58.234375 C-17.7368866 36.54886683 -14.5363726 17.01416338 0 0 Z " transform="translate(197,166)" style="fill: #C85D3F;"/><path d="M0 0 C0.75925781 0.07927734 1.51851563 0.15855469 2.30078125 0.24023438 C6.53889453 0.75608179 9.27518455 1.32290639 12.5 4.3125 C13.510625 4.951875 14.52125 5.59125 15.5625 6.25 C18.37611718 8.22551845 19.77981039 9.39717865 21.5 12.3125 C21.93359375 15.40625 21.93359375 15.40625 21.9375 18.8125 C21.95683594 19.9365625 21.97617188 21.060625 21.99609375 22.21875 C21.38709383 26.0166078 20.58335634 27.06083846 17.5 29.3125 C8.89907376 32.94574655 -0.22041339 34.42657466 -9.5 33.3125 C-12.75 31.9375 -12.75 31.9375 -15.5 30.3125 C-22.63810404 27.75161319 -30.09877616 27.94679798 -37.5 29.3125 C-37.83 29.9725 -38.16 30.6325 -38.5 31.3125 C-48.16188544 33.26221315 -58.81129617 32.598279 -68.64770508 32.66259766 C-70.52022596 32.6793122 -72.39267923 32.70679988 -74.26489258 32.74462891 C-76.99853738 32.79930656 -79.73072671 32.82123346 -82.46484375 32.8359375 C-83.29821762 32.85860687 -84.13159149 32.88127625 -84.99021912 32.90463257 C-89.33133783 32.88880591 -90.97433642 32.73270385 -94.48266602 29.92822266 C-97.29990003 26.27533082 -98.27933415 23.58745827 -99.0625 19.0625 C-98.25231594 13.66127293 -95.42741269 10.04240258 -91.5 6.3125 C-87.30673866 4.14664997 -83.41184228 4.04868648 -78.79296875 4.1171875 C-77.70487663 4.12143234 -77.70487663 4.12143234 -76.59480286 4.12576294 C-74.29219632 4.13690201 -71.98998773 4.16199434 -69.6875 4.1875 C-68.12044835 4.19753794 -66.55339057 4.20666237 -64.98632812 4.21484375 C-61.15740022 4.2368207 -57.32876744 4.27130661 -53.5 4.3125 C-53.17 3.6525 -52.84 2.9925 -52.5 2.3125 C-52.33886719 2.85519531 -52.17773438 3.39789063 -52.01171875 3.95703125 C-51.06773538 6.44002067 -50.1900162 8.2478296 -48.5 10.3125 C-44.9257708 11.89133218 -41.34531582 12.67603393 -37.5 13.3125 C-37.6546875 11.7346875 -37.6546875 11.7346875 -37.8125 10.125 C-37.5 6.3125 -37.5 6.3125 -35.125 3.4375 C-31.0322659 0.1243343 -28.76384984 0.04484662 -23.5 0.3125 C-22.2315625 0.8384375 -22.2315625 0.8384375 -20.9375 1.375 C-17.7327661 2.60758996 -15.79301813 2.15327059 -12.5 1.3125 C-11.68208984 0.77302734 -11.68208984 0.77302734 -10.84765625 0.22265625 C-7.22028067 -1.18363079 -3.76400054 -0.48887274 0 0 Z " transform="translate(169.5,296.6875)" style="fill: #79463C;"/><path d="M0 0 C3.8828125 4.7265625 3.8828125 4.7265625 4.9375 7.1875 C6.45211578 9.77125633 8.21285307 10.07095102 11 11 C12.34050052 11.65213539 13.67661368 12.31379969 15 13 C15 13.66 15 14.32 15 15 C15.57492188 15.26683594 16.14984375 15.53367188 16.7421875 15.80859375 C29.82308917 22.71114567 43.97444109 35.98557418 48.7578125 50.26171875 C50.69875413 58.0938283 51.17400156 64.89489376 47.16796875 72.078125 C46.78253906 72.71234375 46.39710938 73.3465625 46 74 C45.18982422 75.35351562 45.18982422 75.35351562 44.36328125 76.734375 C43.91339844 77.48203125 43.46351563 78.2296875 43 79 C43.68513672 78.98952637 44.37027344 78.97905273 45.07617188 78.96826172 C48.21740974 78.92637148 51.35858857 78.90056963 54.5 78.875 C56.11648438 78.84986328 56.11648438 78.84986328 57.765625 78.82421875 C63.88824592 78.7868857 69.14105614 79.19396633 75 81 C75 81.66 75 82.32 75 83 C76.0828125 83.37125 76.0828125 83.37125 77.1875 83.75 C80.28975304 85.12877913 82.50122551 86.70945672 85 89 C86.85639564 94.56918691 86.61597842 99.76804316 84 105 C82.783125 105.0825 81.56625 105.165 80.3125 105.25 C76.21534129 105.73758372 73.99860092 107.09510536 71 110 C71.33 109.175 71.66 108.35 72 107.5 C73.22907649 103.1982323 73.49644339 100.46799051 73 96 C70.29304262 91.98322453 67.76542291 90.7345013 63.1875 89.6875 C61.79482492 89.43986283 60.39968739 89.20431167 59 89 C59 88.34 59 87.68 59 87 C59.66 87 60.32 87 61 87 C61.28875 86.38125 61.5775 85.7625 61.875 85.125 C63 83 63 83 65 81 C47.51 80.67 30.02 80.34 12 80 C9.90751599 69.53757996 9.90751599 69.53757996 13 64.5 C16.18816745 58.45987184 16.46624615 51.61032638 15 45 C12.5231076 38.31239053 8.79683022 31.85406648 4.61206055 26.08740234 C0.76787114 20.62602123 0.23064115 16.09580231 0.1875 9.5 C0.16236328 8.5821875 0.13722656 7.664375 0.11132812 6.71875 C0.05299439 4.47873449 0.01632472 2.24064813 0 0 Z " transform="translate(219,221)" style="fill: #823F37;"/><path d="M0 0 C7.12864735 0.64337973 11.61430672 6.82491455 16 12 C18.60076057 15.53607997 20.86050876 19.1699026 23 23 C23.42152344 23.73347656 23.84304687 24.46695313 24.27734375 25.22265625 C28.84140358 33.65236105 28.89171507 43.60269506 28 53 C26.40526228 57.8704152 24.14823674 62.82295761 20 66 C17.01318359 66.35644531 17.01318359 66.35644531 13.3984375 66.328125 C11.45710938 66.32039063 11.45710938 66.32039063 9.4765625 66.3125 C8.80399414 66.3021875 8.13142578 66.291875 7.43847656 66.28125 C5.37546775 66.25000708 3.31322227 66.24026992 1.25 66.234375 C-8.84623365 66.15376635 -8.84623365 66.15376635 -10 65 C-11.09864192 57.7803531 -7.54354862 53.07227816 -4 47 C-3.0452267 45.19653932 -2.10652924 43.38443517 -1.1875 41.5625 C-0.59001953 40.38880859 -0.59001953 40.38880859 0.01953125 39.19140625 C2.29748171 34.10005084 2.18327314 29.23646079 2.1875 23.75 C2.19974609 22.92886719 2.21199219 22.10773438 2.22460938 21.26171875 C2.23755255 15.81695646 1.44692874 11.24298886 0 6 C-0.125 2.5 -0.125 2.5 0 0 Z " transform="translate(172,231)" style="fill: #EAA968;"/><path d="M0 0 C3.36322566 -0.23106131 6.64368204 -0.36400259 10 0 C10.639375 0.66 11.27875 1.32 11.9375 2 C14.57453919 4.55712891 15.76495169 4.32654298 19.375 4.375 C22.64344191 4.27165006 24.8680732 4.05052516 27.9375 2.875 C31.28436016 1.91875424 32.63097772 2.17550326 35.984375 2.8515625 C41.40022055 3.81816796 46.75871623 4.38036222 52.23828125 4.78125 C53.46272194 4.87141891 53.46272194 4.87141891 54.7118988 4.96340942 C58.10603654 5.20844744 61.50076431 5.44430393 64.89575195 5.67724609 C67.4062483 5.85153638 69.91597883 6.03477474 72.42578125 6.21875 C73.56192619 6.29228699 73.56192619 6.29228699 74.72102356 6.36730957 C79.39401865 6.71351775 83.57254597 7.42573063 88 9 C88.33 9.66 88.66 10.32 89 11 C88.06357666 10.97494385 87.12715332 10.9498877 86.16235352 10.92407227 C85.53239975 10.90726913 84.90244598 10.890466 84.25340271 10.87315369 C82.80512562 10.83446875 81.35685308 10.7956128 79.90858459 10.75660706 C75.7580197 10.64536818 71.60740446 10.53856188 67.45654297 10.43896484 C59.12113444 10.23557716 50.79012254 10.00630214 42.45951843 9.65336609 C38.74700025 9.49832677 35.03387921 9.36305243 31.32052612 9.22970581 C29.53361571 9.16029454 27.74704134 9.08156219 25.96096802 8.99319458 C13.05893876 8.11984961 13.05893876 8.11984961 2 14 C-5.19570499 18.36226327 -14.57551938 17.3203908 -22.6875 17.375 C-23.72005417 17.38333862 -23.72005417 17.38333862 -24.77346802 17.3918457 C-36.45033224 17.43945155 -46.96666808 15.93545597 -58 12 C-59.125 6.375 -59.125 6.375 -58 3 C-40.98555633 1.05398944 -40.98555633 1.05398944 -33.25 5.625 C-23.39890334 9.79277166 -12.63391383 6.23294413 -3 3 C-2.01 2.67 -1.02 2.34 0 2 C0 1.34 0 0.68 0 0 Z " transform="translate(190,322)" style="fill: #77483A;"/><path d="M0 0 C18.48484848 -0.22727273 18.48484848 -0.22727273 27 1 C27.33 1.33 27.66 1.66 28 2 C29.95189828 2.12174629 31.90783883 2.1797283 33.86328125 2.2109375 C35.06017578 2.23929687 36.25707031 2.26765625 37.49023438 2.296875 C40.02654928 2.34871588 42.56302918 2.39305818 45.09960938 2.4296875 C46.30037109 2.460625 47.50113281 2.4915625 48.73828125 2.5234375 C49.84212158 2.54325684 50.94596191 2.56307617 52.08325195 2.58349609 C55.26413726 3.0377181 56.65692138 3.85854918 59 6 C58 9 58 9 56.5 10.375 C54.56690264 12.46918881 54.37547204 14.22150692 54 17 C52.35 17.33 50.7 17.66 49 18 C49 17.34 49 16.68 49 16 C48.11441406 16.18433594 47.22882813 16.36867188 46.31640625 16.55859375 C40.52253938 17.38337972 34.73366809 16.57454727 28.9375 16.0625 C19.59096197 15.29600987 10.38214876 14.68783978 1 15 C1.01740234 14.00419922 1.01740234 14.00419922 1.03515625 12.98828125 C1.04417969 12.10527344 1.05320313 11.22226562 1.0625 10.3125 C1.07410156 9.44238281 1.08570313 8.57226562 1.09765625 7.67578125 C1.00043483 5.01191443 0.59364333 2.59426811 0 0 Z " transform="translate(222,306)" style="fill: #B84F3C;"/><path d="M0 0 C1.04146683 0.02442673 2.08293365 0.04885345 3.15596008 0.07402039 C4.33695786 0.09426773 5.51795563 0.11451508 6.73474121 0.13537598 C8.00981033 0.17273361 9.28487946 0.21009125 10.59858704 0.24858093 C12.55656975 0.28824226 12.55656975 0.28824226 14.55410767 0.32870483 C18.02165538 0.39911629 21.48850198 0.48783976 24.95552063 0.58036804 C28.49450481 0.67157897 32.03384549 0.74548695 35.57319641 0.82084656 C42.51570124 0.97121988 49.45761888 1.14093958 56.39936829 1.32279968 C56.89436829 2.80779968 56.89436829 2.80779968 57.39936829 4.32279968 C58.2617511 4.45686218 59.12413391 4.59092468 60.01264954 4.72904968 C63.25159449 5.2968924 66.39649263 6.03015977 69.58686829 6.82279968 C75.51832599 8.22044201 81.32204302 8.96960843 87.39936829 9.32279968 C87.39936829 9.65279968 87.39936829 9.98279968 87.39936829 10.32279968 C54.72936829 10.98279968 22.05936829 11.64279968 -11.60063171 12.32279968 C-3.6908459 0.45812095 -3.6908459 0.45812095 0 0 Z " transform="translate(74.60063171386719,329.6772003173828)" style="fill: #61564E;"/><path d="M0 0 C5.67311399 0.3846179 8.82305585 0.82305585 13 5 C14.5955739 8.19114781 14.38584417 11.52740245 14 15 C12.5 18.5 12.5 18.5 11 21 C10.34 21 9.68 21 9 21 C9 21.66 9 22.32 9 23 C7.54207116 23.05399736 6.08357288 23.09279177 4.625 23.125 C3.40683594 23.15980469 3.40683594 23.15980469 2.1640625 23.1953125 C0 23 0 23 -2 21 C-4.33411589 20.57590088 -6.58094187 20.28622899 -8.9375 20.0625 C-9.68588135 19.98459229 -10.4342627 19.90668457 -11.20532227 19.82641602 C-17.08946514 19.23421935 -22.98232841 18.74050656 -28.875 18.2421875 C-29.65678116 18.17593674 -30.43856232 18.10968597 -31.24403381 18.04142761 C-35.22911486 17.70476237 -39.21456007 17.3740618 -43.20092773 17.05297852 C-44.69515241 16.92988271 -46.18937453 16.80675578 -47.68359375 16.68359375 C-48.72320251 16.60242813 -48.72320251 16.60242813 -49.78381348 16.5196228 C-52.71214712 16.27547269 -55.1974868 15.93417107 -58 15 C-57.67 13.35 -57.34 11.7 -57 10 C-38.94237045 9.5751146 -20.93124828 10.89378988 -3 13 C-2.67 10.69 -2.34 8.38 -2 6 C-1.01 5.67 -0.02 5.34 1 5 C0.505 2.525 0.505 2.525 0 0 Z " transform="translate(279,310)" style="fill: #AA4C3D;"/><path d="M0 0 C4.36266981 2.22699892 7.29457341 4.94186011 10 9 C10.3359375 11.99609375 10.3359375 11.99609375 10.375 15.4375 C10.40335938 16.57058594 10.43171875 17.70367187 10.4609375 18.87109375 C9.90843654 22.62154521 8.94922826 23.7061558 6 26 C1.0301584 28.31155423 -3.63841984 28.21446321 -9 28 C-8.98839844 27.28714844 -8.97679687 26.57429688 -8.96484375 25.83984375 C-8.91393974 20.43674634 -9.05391729 15.32171525 -10 10 C-10.66 10 -11.32 10 -12 10 C-14.74375671 7.04518508 -15 6.22528092 -15 2 C-10.18688761 -0.78890625 -5.42084894 -0.87481286 0 0 Z " transform="translate(181,300)" style="fill: #D26144;"/><path d="M0 0 C2.10361696 2.4223468 3 3.78245634 3 7 C3.66 7 4.32 7 5 7 C6.98284456 13.07246147 8.00706464 18.72792299 6 25 C7.65 25 9.3 25 11 25 C5.81401409 28.17483528 -0.13405219 27.48153303 -6 27 C-9.76821219 25.63564731 -12.50041438 24.13338368 -15 21 C-15.95571208 14.63886261 -15.18713412 8.01461883 -13 2 C-9.02234216 -0.63444005 -4.61485771 -0.88276634 0 0 Z " transform="translate(166,303)" style="fill: #926B44;"/><path d="M0 0 C0.33 0.66 0.66 1.32 1 2 C2.02770508 1.98428955 2.02770508 1.98428955 3.07617188 1.96826172 C6.21740974 1.92637148 9.35858857 1.90056963 12.5 1.875 C13.57765625 1.85824219 14.6553125 1.84148437 15.765625 1.82421875 C21.88824592 1.7868857 27.14105614 2.19396633 33 4 C33 4.66 33 5.32 33 6 C34.0828125 6.37125 34.0828125 6.37125 35.1875 6.75 C38.28975304 8.12877913 40.50122551 9.70945672 43 12 C44.85639564 17.56918691 44.61597842 22.76804316 42 28 C40.783125 28.0825 39.56625 28.165 38.3125 28.25 C34.21534129 28.73758372 31.99860092 30.09510536 29 33 C29.33 32.175 29.66 31.35 30 30.5 C31.22907649 26.1982323 31.49644339 23.46799051 31 19 C28.29304262 14.98322453 25.76542291 13.7345013 21.1875 12.6875 C19.79482492 12.43986283 18.39968739 12.20431167 17 12 C17 11.34 17 10.68 17 10 C17.66 10 18.32 10 19 10 C19.28875 9.38125 19.5775 8.7625 19.875 8.125 C21 6 21 6 23 4 C5.51 3.67 -11.98 3.34 -30 3 C-30 2.34 -30 1.68 -30 1 C-15.15 0.505 -15.15 0.505 0 0 Z " transform="translate(261,298)" style="fill: #5E3F37;"/><path d="M0 0 C3.03344655 -0.23334204 5.97383195 -0.36101654 9 0 C9.61875 0.66 10.2375 1.32 10.875 2 C13.5637087 4.53054936 14.74658776 4.32623102 18.375 4.375 C21.64344191 4.27165006 23.8680732 4.05052516 26.9375 2.875 C30.28436016 1.91875424 31.63097772 2.17550326 34.984375 2.8515625 C40.40022055 3.81816796 45.75871623 4.38036222 51.23828125 4.78125 C52.46272194 4.87141891 52.46272194 4.87141891 53.7118988 4.96340942 C57.10603654 5.20844744 60.50076431 5.44430393 63.89575195 5.67724609 C66.4062483 5.85153638 68.91597883 6.03477474 71.42578125 6.21875 C72.18321121 6.26777466 72.94064117 6.31679932 73.72102356 6.36730957 C78.39401865 6.71351775 82.57254597 7.42573063 87 9 C87.495 9.99 87.495 9.99 88 11 C87.06357666 10.97494385 86.12715332 10.9498877 85.16235352 10.92407227 C84.53239975 10.90726913 83.90244598 10.890466 83.25340271 10.87315369 C81.80512562 10.83446875 80.35685308 10.7956128 78.90858459 10.75660706 C74.7580197 10.64536818 70.60740446 10.53856188 66.45654297 10.43896484 C58.12113444 10.23557716 49.79012254 10.00630214 41.45951843 9.65336609 C37.74700025 9.49832677 34.03387921 9.36305243 30.32052612 9.22970581 C28.53361571 9.16029454 26.74704134 9.08156219 24.96096802 8.99319458 C12.05893876 8.11984961 12.05893876 8.11984961 1 14 C-2.11842503 15.75685917 -4.16104647 16.23055746 -7.75 16.125 C-8.54921875 16.10695313 -9.3484375 16.08890625 -10.171875 16.0703125 C-10.77515625 16.04710937 -11.3784375 16.02390625 -12 16 C-8.16204041 13.44136028 -4.09685282 11.99129418 0.1875 10.31640625 C2.79429636 9.09628073 4.25451817 8.24501117 6 6 C6.33 5.01 6.66 4.02 7 3 C4.69 2.67 2.38 2.34 0 2 C0 1.34 0 0.68 0 0 Z " transform="translate(191,322)" style="fill: #603B31;"/><path d="M0 0 C2 0 2 0 4.625 2.625 C13.08031726 12.85051915 19.19647054 24.48692101 18 38 C16.67628866 45.32371134 16.67628866 45.32371134 15 47 C12.46950598 47.07313567 9.96695163 47.09247527 7.4375 47.0625 C6.37112305 47.05573242 6.37112305 47.05573242 5.28320312 47.04882812 C3.52209987 47.03700864 1.76103964 47.01907263 0 47 C0.62390625 46.23429687 1.2478125 45.46859375 1.890625 44.6796875 C8.38662338 36.42736363 7.8219753 27.55760621 6.71875 17.4140625 C5.55498613 11.21478188 2.75778723 5.63135942 0 0 Z " transform="translate(192,249)" style="fill: #D56D44;"/><path d="M0 0 C4.31290923 0.8471786 5.77021358 2.3154109 8.5 5.6875 C10.35811574 9.40373149 9.93298232 13.63147445 9.5 17.6875 C8.0625 20.8125 8.0625 20.8125 5.5 22.6875 C2.32952956 23.43794163 -0.34135311 23.52361241 -3.5 22.6875 C-6.88409611 18.88039188 -8.30442232 15.41510283 -8.875 10.375 C-8.2821626 4.54543219 -6.08264896 1.19480605 0 0 Z " transform="translate(79.5,305.3125)" style="fill: #D48E5D;"/><path d="M0 0 C5.67311399 0.3846179 8.82305585 0.82305585 13 5 C14.5955739 8.19114781 14.38584417 11.52740245 14 15 C12.5 18.5 12.5 18.5 11 21 C10.34 21 9.68 21 9 21 C9 21.66 9 22.32 9 23 C7.54207116 23.05399736 6.08357288 23.09279177 4.625 23.125 C3.40683594 23.15980469 3.40683594 23.15980469 2.1640625 23.1953125 C0 23 0 23 -2 21 C-3.98821313 20.60235737 -5.98944339 20.26224651 -8 20 C-8 19.67 -8 19.34 -8 19 C-6.35 19 -4.7 19 -3 19 C-3.02320313 18.24074219 -3.04640625 17.48148437 -3.0703125 16.69921875 C-3.08835937 15.70535156 -3.10640625 14.71148437 -3.125 13.6875 C-3.14820313 12.70136719 -3.17140625 11.71523438 -3.1953125 10.69921875 C-3 8 -3 8 -1 5 C-0.34 5 0.32 5 1 5 C0.67 3.35 0.34 1.7 0 0 Z " transform="translate(279,310)" style="fill: #964A3B;"/><path d="M0 0 C1.41493551 -0.10884119 2.83232943 -0.18597617 4.25 -0.25 C5.03890625 -0.29640625 5.8278125 -0.3428125 6.640625 -0.390625 C9 0 9 0 10.84375 2 C13.92547549 4.85841205 16.13279668 4.40248901 20.25 4.25 C21.51328125 4.21390625 22.7765625 4.1778125 24.078125 4.140625 C25.04234375 4.09421875 26.0065625 4.0478125 27 4 C26.4765625 5.97265625 26.4765625 5.97265625 25 8 C22.35830577 8.33550121 20.01573365 8.45626029 17.375 8.4375 C10.52426654 8.60275224 6.43686619 9.68011375 1 14 C-2.04518936 15.84084193 -4.20704471 16.22920457 -7.75 16.125 C-8.54921875 16.10695313 -9.3484375 16.08890625 -10.171875 16.0703125 C-10.77515625 16.04710937 -11.3784375 16.02390625 -12 16 C-8.16204041 13.44136028 -4.09685282 11.99129418 0.1875 10.31640625 C2.79429636 9.09628073 4.25451817 8.24501117 6 6 C6.33 5.01 6.66 4.02 7 3 C4.69 2.67 2.38 2.34 0 2 C0 1.34 0 0.68 0 0 Z " transform="translate(191,322)" style="fill: #57382C;"/><path d="M0 0 C0.99 0.33 1.98 0.66 3 1 C4.76408128 1.08799471 6.53133766 1.11764257 8.29760742 1.11352539 C9.37850143 1.11344986 10.45939545 1.11337433 11.57304382 1.11329651 C13.32159416 1.10555458 13.32159416 1.10555458 15.10546875 1.09765625 C16.29981033 1.0962413 17.49415192 1.09482635 18.72468567 1.09336853 C22.54564908 1.0877635 26.36655425 1.07521011 30.1875 1.0625 C32.77538978 1.05748565 35.36328048 1.05292263 37.95117188 1.04882812 C44.30080118 1.03779243 50.65039643 1.02104936 57 1 C57 1.99 57 2.98 57 4 C49.38284136 4.05067075 41.76572613 4.08572127 34.1484375 4.10986328 C31.5566241 4.11992668 28.96482207 4.13357864 26.37304688 4.15087891 C22.64971106 4.17511195 18.92652523 4.18647974 15.203125 4.1953125 C13.46231659 4.21079636 13.46231659 4.21079636 11.68634033 4.22659302 C10.06511261 4.22681961 10.06511261 4.22681961 8.41113281 4.22705078 C6.98550018 4.23371262 6.98550018 4.23371262 5.53106689 4.24050903 C2.89367942 3.98989712 1.26168661 3.34166934 -1 2 C-0.67 1.34 -0.34 0.68 0 0 Z " transform="translate(75,327)" style="fill: #4F3C36;"/></svg>